<svg xmlns="http://www.w3.org/2000/svg" xmlns:xlink="http://www.w3.org/1999/xlink" contentStyleType="text/css" data-diagram-type="DESCRIPTION" height="655px" preserveAspectRatio="none" style="width:388px;height:655px;background:#FFFFFF;" version="1.1" viewBox="0 0 388 655" width="388px" zoomAndPan="magnify"><title>Schichtenarchitektur HPT</title><defs/><g><g class="title" data-source-line="6"><text fill="#000000" font-family="sans-serif" font-size="14" font-weight="bold" lengthAdjust="spacing" textLength="202.4463" x="85.9719" y="22.9951">Schichtenarchitektur HPT</text></g><!--cluster Gesch?ftslogikschicht--><g class="cluster" data-entity="Geschäftslogikschicht" data-source-line="11" data-uid="ent0003" id="cluster_Geschäftslogikschicht"><rect fill="none" height="221.4" rx="2.5" ry="2.5" style="stroke:#000000;stroke-width:1;" width="294" x="7" y="159.8869"/><text fill="#000000" font-family="sans-serif" font-size="14" font-weight="bold" lengthAdjust="spacing" textLength="173.0518" x="67.4741" y="174.882">Geschäftslogikschicht</text></g><!--cluster BL--><g class="cluster" data-entity="BL" data-source-line="12" data-uid="ent0004" id="cluster_BL"><rect fill="#D3D3D3" height="138.4" rx="2.5" ry="2.5" style="stroke:#000000;stroke-width:1;" width="230" x="39" y="210.8869"/><text fill="#000000" font-family="sans-serif" font-size="14" font-style="italic" lengthAdjust="spacing" textLength="56.1641" x="125.918" y="225.882">«Layer»</text><text fill="#000000" font-family="sans-serif" font-size="14" font-weight="bold" lengthAdjust="spacing" textLength="157.7188" x="75.1406" y="242.1789">NET, Geschäftslogik</text></g><!--cluster PLayer--><g class="cluster" data-entity="PLayer" data-source-line="21" data-uid="ent0008" id="cluster_PLayer"><rect fill="none" height="103.6" rx="2.5" ry="2.5" style="stroke:#000000;stroke-width:1;" width="154" x="184" y="430.2869"/><text fill="#000000" font-family="sans-serif" font-size="14" font-weight="bold" lengthAdjust="spacing" textLength="138.7832" x="191.6084" y="445.282">Persistenzschicht</text></g><!--entity PL--><g class="entity" data-entity="PL" data-source-line="8" data-uid="ent0002" id="entity_PL"><rect fill="#D3D3D3" height="52.5938" rx="2.5" ry="2.5" style="stroke:#000000;stroke-width:0.5;" width="235.3594" x="143.32" y="44.2969"/><text fill="#000000" font-family="sans-serif" font-size="14" font-style="italic" lengthAdjust="spacing" textLength="56.1641" x="232.9177" y="67.292">«Layer»</text><text fill="#000000" font-family="sans-serif" font-size="14" lengthAdjust="spacing" textLength="215.3594" x="153.32" y="83.5889">Präsentationsschicht (Angular)</text></g><g class="entity" data-entity="GMN5" data-source-line="14" data-uid="ent0006" id="entity_GMN5"><path d="M62.76,269.8869 L62.76,325.2853 L225.2366,325.2853 L225.2366,279.8869 L215.2366,269.8869 L62.76,269.8869" fill="#FEFFDD" style="stroke:#181818;stroke-width:0.5;"/><path d="M215.2366,269.8869 L215.2366,279.8869 L225.2366,279.8869 L215.2366,269.8869" fill="#FEFFDD" style="stroke:#181818;stroke-width:1;"/><text fill="#000000" font-family="sans-serif" font-size="13" lengthAdjust="spacing" textLength="74.8325" x="68.76" y="286.9538">Verwendet:</text><text fill="#000000" font-family="sans-serif" font-size="13" lengthAdjust="spacing" textLength="130.2476" x="68.76" y="302.0866">- Repository Pattern</text><text fill="#000000" font-family="sans-serif" font-size="13" lengthAdjust="spacing" textLength="141.4766" x="68.76" y="317.2194">- Unit of Work Pattern</text></g><!--entity P--><g class="entity" data-entity="P" data-source-line="22" data-uid="ent0009" id="entity_P"><rect fill="#D3D3D3" height="52.5938" rx="2.5" ry="2.5" style="stroke:#000000;stroke-width:0.5;" width="110.8291" x="205.59" y="465.2869"/><text fill="#000000" font-family="sans-serif" font-size="14" font-style="italic" lengthAdjust="spacing" textLength="56.1641" x="232.9225" y="488.282">«Layer»</text><text fill="#000000" font-family="sans-serif" font-size="14" lengthAdjust="spacing" textLength="90.8291" x="215.59" y="504.5789">NET, EF Core</text></g><!--entity DL--><g class="entity" data-entity="DL" data-source-line="26" data-uid="ent0010" id="entity_DL"><rect fill="#D3D3D3" height="52.5938" rx="2.5" ry="2.5" style="stroke:#000000;stroke-width:0.5;" width="242.79" x="139.6" y="596.8869"/><text fill="#000000" font-family="sans-serif" font-size="14" font-style="italic" lengthAdjust="spacing" textLength="56.1641" x="232.913" y="619.882">«Layer»</text><text fill="#000000" font-family="sans-serif" font-size="14" lengthAdjust="spacing" textLength="222.79" x="149.6" y="636.1789">Data Layer (MSSQL-Datenbank)</text></g><!--link BL to GMN5--><g class="link" data-entity-1="BL" data-entity-2="GMN5" data-source-line="14" data-uid="lnk7" id="link_BL_GMN5"><path d="M260.16,297.5869 C248.56,297.5869 236.96,297.5869 225.35,297.5869" fill="none" id="BL-GMN5" style="stroke:#181818;stroke-width:1;stroke-dasharray:7.0,7.0;"/></g><!--link PL to BL--><g class="link" data-entity-1="PL" data-entity-2="BL" data-source-line="29" data-uid="lnk11" id="link_PL_BL"><path d="M261,96.9669 C261,111.4469 261,130.8894 261,151.975 C261,162.5178 261,173.4714 261,184.4209 C261,189.8956 261,195.3693 261,200.7901 C261,203.5005 261,206.1976 261,208.8751 C261,209.5445 261,204.2126 261,204.8794" fill="none" id="PL-to-BL" style="stroke:#181818;stroke-width:1;"/><polygon fill="#181818" points="261,210.8794,265,201.8794,261,205.8794,257,201.8794,261,210.8794" style="stroke:#181818;stroke-width:1;"/><text fill="#000000" font-family="sans-serif" font-size="13" lengthAdjust="spacing" textLength="69.2529" x="262" y="139.9538">verwendet</text></g><!--link BL to P--><g class="link" data-entity-1="BL" data-entity-2="P" data-source-line="30" data-uid="lnk12" id="link_BL_P"><path d="M261,349.3916 C261,349.6449 261,349.8988 261,350.1533 C261,350.6621 261,351.1731 261,351.6862 C261,355.7907 261,360.0269 261,364.3544 C261,398.9744 261,433.4369 261,459.0369" fill="none" id="BL-to-P" style="stroke:#181818;stroke-width:1;"/><polygon fill="#181818" points="261,465.0369,265,456.0369,261,460.0369,257,456.0369,261,465.0369" style="stroke:#181818;stroke-width:1;"/><text fill="#000000" font-family="sans-serif" font-size="13" lengthAdjust="spacing" textLength="69.2529" x="262" y="410.3538">verwendet</text></g><!--link P to DL--><g class="link" data-entity-1="P" data-entity-2="DL" data-source-line="31" data-uid="lnk13" id="link_P_DL"><path d="M261,518.1869 C261,540.9069 261,567.9269 261,590.6269" fill="none" id="P-to-DL" style="stroke:#181818;stroke-width:1;"/><polygon fill="#181818" points="261,596.6269,265,587.6269,261,591.6269,257,587.6269,261,596.6269" style="stroke:#181818;stroke-width:1;"/><text fill="#000000" font-family="sans-serif" font-size="13" lengthAdjust="spacing" textLength="78.9902" x="262" y="562.9538">greift zu auf</text></g><!--SRC=[RL1BRi8m4Dtd52DML6ekW11I0orTf5LQQBkU9fDW9RNHU584YDjm4ovMnw5yqdfbpxoFtxEbqaja_0AcL50N5S4s08WmBGisjSx6fZ8y7CQu9XwD85R5GgQCwmPaE2Fs08WgnmXsGI1AdCOiNQXq8QIHtKseb9hXCPa7mTcdb_1XRqaBYZBQsfO2_JjTr1NoJG_GGXB3sNpR65m8JCcH3ljSR6KALHuLUZx11UpvVduB7QmNZwx5mHrjX82Ra61o1_13W7VY5UcCP70SXF1AIsEL65v3WYB4-hHwqyhJFmoNLqiduHtSOzV9aX1RPLrZcrCC7x_vtR-1xXzWR9XQM2T7Lto2Wj1AzPzcivSuT1FIdwZBjkR9dvfTyM5cLZeSDJKDuFktWI0wRvAhHNAQJnf6mQHoWKqDMES_]--></g></svg>