<svg xmlns="http://www.w3.org/2000/svg" xmlns:xlink="http://www.w3.org/1999/xlink" contentStyleType="text/css" data-diagram-type="DESCRIPTION" height="1024px" preserveAspectRatio="none" style="width:910px;height:1024px;background:#FFFFFF;" version="1.1" viewBox="0 0 910 1024" width="910px" zoomAndPan="magnify"><defs/><g><!--cluster Controller--><g class="cluster" data-entity="Controller" data-source-line="5" data-uid="ent0002" id="cluster_Controller"><rect fill="none" height="311" rx="2.5" ry="2.5" style="stroke:#181818;stroke-width:1;" width="533.51" x="129.79" y="369.15"/><rect fill="none" height="10" style="stroke:#181818;stroke-width:1;" width="15" x="643.3" y="374.15"/><rect fill="none" height="2" style="stroke:#181818;stroke-width:1;" width="4" x="641.3" y="376.15"/><rect fill="none" height="2" style="stroke:#181818;stroke-width:1;" width="4" x="641.3" y="380.15"/><text fill="#000000" font-family="sans-serif" font-size="14" font-weight="bold" lengthAdjust="spacing" textLength="210.7246" x="291.1827" y="395.1451">[AnnouncementController]</text></g><!--cluster UnitOfWork--><g class="cluster" data-entity="UnitOfWork" data-source-line="11" data-uid="ent0006" id="cluster_UnitOfWork"><rect fill="none" height="218" rx="2.5" ry="2.5" style="stroke:#181818;stroke-width:1;" width="600.51" x="129.79" y="720.15"/><rect fill="none" height="10" style="stroke:#181818;stroke-width:1;" width="15" x="710.3" y="725.15"/><rect fill="none" height="2" style="stroke:#181818;stroke-width:1;" width="4" x="708.3" y="727.15"/><rect fill="none" height="2" style="stroke:#181818;stroke-width:1;" width="4" x="708.3" y="731.15"/><text fill="#000000" font-family="sans-serif" font-size="14" font-weight="bold" lengthAdjust="spacing" textLength="104.8906" x="377.5997" y="746.1451">[UnitOfWork]</text></g><!--cluster Auth--><g class="cluster" data-entity="Auth" data-source-line="21" data-uid="ent0012" id="cluster_Auth"><path d="M498.2486,205.9223 C502.1027,199.8766 507.7433,199.0836 512.5176,204.8066 C515.3873,196.2329 519.9652,196.1729 526.4519,201.0633 C530.4489,192.0367 536.9204,192.4549 542.7371,199.1822 C545.3647,191.306 551.4029,191.6378 556.3581,196.7392 C560.0832,190.6798 566.2065,188.9463 570.2762,196.3839 C573.14,189.9387 580.0149,188.4411 584.5961,194.4015 C590.0903,187.5379 594.5304,188.129 599.3648,195.1057 C606.3155,189.4614 611.7604,190.8578 614.9698,199.2617 C619.4744,193.394 624.2383,192.5571 628.8181,199.1782 C633.6251,193.8435 640.528,194.7911 643.297,201.6068 C649.2802,194.8387 654.0575,196.2802 658.6668,203.1546 C668.4083,194.1255 677.1303,200.0981 678.96,211.15 C679.9002,211.3626 679.998,212.1748 679.3122,212.7462 C686.677,214.3322 687.3479,219.2426 683.6132,224.7918 C690.4227,227.6107 690.3789,232.3019 685.7093,237.0789 C694.5133,241.1444 693.0642,245.9746 687.7376,251.9654 C695.72,254.3207 695.628,259.6703 690.9186,265.0995 C695.5957,270.1803 694.6883,273.6982 688.3513,276.2411 C693.75,280.8473 693.7776,287.4479 686.6987,290.6202 C691.4282,296.1973 687.6813,300.6382 681.9196,301.6832 C687.7717,311.715 682.8079,319.6623 671.96,321.15 C673.0185,320.4292 673.8052,320.824 673.9803,322.0614 C670.931,330.7676 664.0704,330.7883 658.8378,324.2268 C654.1679,331.7239 649.4049,332.6084 643.7874,325.1824 C640.4696,333.6536 633.1184,332.9846 628.6777,326.3021 C624.6265,334.3827 618.6616,333.2242 613.6605,327.3223 C610.6215,334.5258 603.8914,335.2437 599.8167,328.3384 C595.4055,335.0103 591.2486,335.1182 586.5934,328.5826 C582.359,334.9264 575.0353,335.5372 571.9087,327.4549 C566.4846,334.5951 561.0275,332.0278 557.5321,325.4357 C552.7015,333.5672 545.6175,332.6275 541.9889,324.3006 C537.1164,333.0687 530.6552,331.1512 525.8788,324.2021 C521.0471,329.4219 515.275,329.7916 512.1851,322.3224 C501.0292,328.4889 493.0346,329.3945 489.64,314.15 C490.6672,313.6769 491.0558,314.1012 491.1449,315.1055 C484.6783,311.7251 484.3083,306.8221 490.6914,302.9618 C484.8151,298.6608 483.5617,294.6053 489.5518,289.3135 C484.4332,286.5713 483.4857,281.0349 488.4834,277.3865 C481.1782,273.99 481.9596,269.2956 487.0984,264.5558 C480.2764,260.0073 481.1995,254.6107 487.3408,250.2824 C483.0908,245.7189 483.9217,240.8636 489.8265,238.4299 C484.7759,234.1883 484.2252,228.7144 491.2048,225.784 C482.8603,216.4066 483.4983,208.1294 496.64,204.15 C497.9638,203.7958 498.6814,204.6821 498.2486,205.9223" fill="none" style="stroke:#181818;stroke-width:1;"/><text fill="#000000" font-family="sans-serif" font-size="14" font-weight="bold" lengthAdjust="spacing" textLength="141.1621" x="513.7189" y="222.1451">Microsoft Identity</text></g><!--entity UoWInterface--><g class="entity" data-entity="UoWInterface" data-source-line="6" data-uid="ent0003" id="entity_UoWInterface"><ellipse cx="584.3" cy="627.15" fill="#F1F1F1" rx="8" ry="8" style="stroke:#181818;stroke-width:0.5;"/><text fill="#000000" font-family="sans-serif" font-size="14" lengthAdjust="spacing" textLength="84.8477" x="541.8762" y="657.1451">IUnitOfWork</text></g><!--entity MapperInterface--><g class="entity" data-entity="MapperInterface" data-source-line="7" data-uid="ent0004" id="entity_MapperInterface"><ellipse cx="584.3" cy="534.15" fill="#F1F1F1" rx="8" ry="8" style="stroke:#181818;stroke-width:0.5;"/><text fill="#000000" font-family="sans-serif" font-size="14" lengthAdjust="spacing" textLength="56.9297" x="555.8352" y="564.1451">IMapper</text></g><!--entity ImageServiceInterface--><g class="entity" data-entity="ImageServiceInterface" data-source-line="8" data-uid="ent0005" id="entity_ImageServiceInterface"><ellipse cx="584.3" cy="441.15" fill="#F1F1F1" rx="8" ry="8" style="stroke:#181818;stroke-width:0.5;"/><text fill="#000000" font-family="sans-serif" font-size="14" lengthAdjust="spacing" textLength="95.5869" x="536.5065" y="471.1451">ImageService</text></g><!--entity AnnouncementRepo--><g class="entity" data-entity="AnnouncementRepo" data-source-line="12" data-uid="ent0007" id="entity_AnnouncementRepo"><ellipse cx="584.3" cy="885.15" fill="#F1F1F1" rx="8" ry="8" style="stroke:#181818;stroke-width:0.5;"/><text fill="#000000" font-family="sans-serif" font-size="14" lengthAdjust="spacing" textLength="185.7598" x="491.4201" y="915.1451">IAnnouncementRepository</text></g><!--entity ImageRepo--><g class="entity" data-entity="ImageRepo" data-source-line="13" data-uid="ent0008" id="entity_ImageRepo"><ellipse cx="584.3" cy="792.15" fill="#F1F1F1" rx="8" ry="8" style="stroke:#181818;stroke-width:0.5;"/><text fill="#000000" font-family="sans-serif" font-size="14" lengthAdjust="spacing" textLength="229.6055" x="469.4973" y="822.1451">IAnnouncementImageRepository</text></g><!--entity ScopeCheck--><g class="entity" data-entity="ScopeCheck" data-source-line="22" data-uid="ent0013" id="entity_ScopeCheck"><rect fill="#F1F1F1" height="46.2969" rx="2.5" ry="2.5" style="stroke:#181818;stroke-width:0.5;" width="157.3184" x="505.64" y="259"/><rect fill="#F1F1F1" height="10" style="stroke:#181818;stroke-width:0.5;" width="15" x="642.9584" y="264"/><rect fill="#F1F1F1" height="2" style="stroke:#181818;stroke-width:0.5;" width="4" x="640.9584" y="266"/><rect fill="#F1F1F1" height="2" style="stroke:#181818;stroke-width:0.5;" width="4" x="640.9584" y="270"/><text fill="#000000" font-family="sans-serif" font-size="14" lengthAdjust="spacing" textLength="117.3184" x="520.64" y="291.9951">Scope Validation</text></g><!--entity AnnouncementService--><g class="entity" data-entity="AnnouncementService" data-source-line="16" data-uid="ent0009" id="entity_AnnouncementService"><rect fill="#F1F1F1" height="46.2969" rx="2.5" ry="2.5" style="stroke:#181818;stroke-width:0.5;" width="209.2236" x="33.54" y="7"/><rect fill="#F1F1F1" height="10" style="stroke:#181818;stroke-width:0.5;" width="15" x="222.7636" y="12"/><rect fill="#F1F1F1" height="2" style="stroke:#181818;stroke-width:0.5;" width="4" x="220.7636" y="14"/><rect fill="#F1F1F1" height="2" style="stroke:#181818;stroke-width:0.5;" width="4" x="220.7636" y="18"/><text fill="#000000" font-family="sans-serif" font-size="14" lengthAdjust="spacing" textLength="169.2236" x="48.54" y="39.9951">[AnnouncementService]</text></g><!--entity ImageService--><g class="entity" data-entity="ImageService" data-source-line="17" data-uid="ent0010" id="entity_ImageService"><rect fill="#F1F1F1" height="46.2969" rx="2.5" ry="2.5" style="stroke:#181818;stroke-width:0.5;" width="146.5107" x="64.89" y="88"/><rect fill="#F1F1F1" height="10" style="stroke:#181818;stroke-width:0.5;" width="15" x="191.4007" y="93"/><rect fill="#F1F1F1" height="2" style="stroke:#181818;stroke-width:0.5;" width="4" x="189.4007" y="95"/><rect fill="#F1F1F1" height="2" style="stroke:#181818;stroke-width:0.5;" width="4" x="189.4007" y="99"/><text fill="#000000" font-family="sans-serif" font-size="14" lengthAdjust="spacing" textLength="106.5107" x="79.89" y="120.9951">[ImageService]</text></g><!--entity Database--><g class="entity" data-entity="Database" data-source-line="18" data-uid="ent0011" id="entity_Database"><path d="M785.3,826.5 C785.3,816.5 839.1833,816.5 839.1833,816.5 C839.1833,816.5 893.0666,816.5 893.0666,826.5 L893.0666,851.7969 C893.0666,861.7969 839.1833,861.7969 839.1833,861.7969 C839.1833,861.7969 785.3,861.7969 785.3,851.7969 L785.3,826.5" fill="#F1F1F1" style="stroke:#181818;stroke-width:0.5;"/><path d="M785.3,826.5 C785.3,836.5 839.1833,836.5 839.1833,836.5 C839.1833,836.5 893.0666,836.5 893.0666,826.5" fill="none" style="stroke:#181818;stroke-width:0.5;"/><text fill="#000000" font-family="sans-serif" font-size="14" lengthAdjust="spacing" textLength="87.7666" x="795.3" y="853.4951">SQL SERVER</text></g><!--entity FileSystem--><g class="entity" data-entity="FileSystem" data-source-line="24" data-uid="ent0014" id="entity_FileSystem"><path d="M536.6757,96.8109 C539.9039,91.767 545.4834,92.0064 548.4216,97.1454 C551.493,90.5115 556.2004,90.5791 560.5474,95.8457 C564.0221,88.8676 569.4196,89.6653 573.8598,94.7833 C576.7403,89.2084 582.6256,88.6151 586.336,93.8231 C589.6864,88.7758 595.1836,89.3381 597.346,95.0399 C601.2873,89.7545 606.8396,90.1831 610.2919,95.6298 C614.0703,90.1955 618.9433,89.9153 622.6726,95.684 C627.4554,91.1338 630.8872,92.0766 633.1925,98.1396 C641.2412,101.3963 643.7763,105.8491 637.2917,113.0905 C641.4907,119.176 641.9095,123.6477 633.6567,126.309 C630.4381,133.3685 626.6464,134.4191 621.1833,128.4593 C618.4435,134.2083 613.2924,134.0086 610.0429,128.9864 C607.1246,135.0256 602.2345,135.0786 598.2815,130.09 C595.5509,136.1344 589.6634,136.6903 585.5073,131.7473 C580.8201,136.9418 576.0695,135.9261 572.75,130.1559 C569.2642,135.3617 564.9503,135.9276 561.1225,130.5309 C557.2282,135.6712 551.1546,135.6608 548.5249,129.1621 C544.8808,133.8319 538.8172,134.3692 536.6217,127.6482 C527.2003,126.4591 523.3046,121.1604 528.9337,112.3886 C523.766,103.6227 526.1974,97.8008 536.6757,96.8109" fill="#F1F1F1" style="stroke:#181818;stroke-width:0.5;"/><text fill="#000000" font-family="sans-serif" font-size="14" lengthAdjust="spacing" textLength="83.6719" x="542.46" y="115.9951">File Storage</text></g><g class="entity" data-entity="GMN28" data-source-line="44" data-uid="ent0029" id="entity_GMN28"><path d="M6,274.89 L6,345.4213 L270.2993,345.4213 L270.2993,284.89 L260.2993,274.89 L6,274.89" fill="#FEFFDD" style="stroke:#181818;stroke-width:0.5;"/><path d="M260.2993,274.89 L260.2993,284.89 L270.2993,284.89 L260.2993,274.89" fill="#FEFFDD" style="stroke:#181818;stroke-width:1;"/><text fill="#000000" font-family="sans-serif" font-size="13" font-weight="bold" lengthAdjust="spacing" textLength="160.3735" x="12" y="291.9569">Verantwortlichkeiten:</text><text fill="#000000" font-family="sans-serif" font-size="13" lengthAdjust="spacing" textLength="178.604" x="12" y="307.0897">- CRUD für Announcements</text><text fill="#000000" font-family="sans-serif" font-size="13" lengthAdjust="spacing" textLength="243.2993" x="12" y="322.2225">- Bild-Uploads (Thumbnail + Original)</text><text fill="#000000" font-family="sans-serif" font-size="13" lengthAdjust="spacing" textLength="197.8882" x="12" y="337.3553">- Scope-basierte Autorisierung</text></g><g class="entity" data-entity="GMN31" data-source-line="51" data-uid="ent0032" id="entity_GMN31"><path d="M477.37,962.45 L477.37,1017.8484 L691.2308,1017.8484 L691.2308,972.45 L681.2308,962.45 L477.37,962.45" fill="#FEFFDD" style="stroke:#181818;stroke-width:0.5;"/><path d="M681.2308,962.45 L681.2308,972.45 L691.2308,972.45 L681.2308,962.45" fill="#FEFFDD" style="stroke:#181818;stroke-width:1;"/><text fill="#000000" font-family="sans-serif" font-size="13" font-weight="bold" lengthAdjust="spacing" textLength="60.5757" x="483.37" y="979.5169">Kapselt:</text><text fill="#000000" font-family="sans-serif" font-size="13" lengthAdjust="spacing" textLength="192.8608" x="483.37" y="994.6497">- Announcement-Repositories</text><text fill="#000000" font-family="sans-serif" font-size="13" lengthAdjust="spacing" textLength="125.3408" x="483.37" y="1009.7825">- DB-Transaktionen</text></g><g class="entity" data-entity="GMN34" data-source-line="57" data-uid="ent0035" id="entity_GMN34"><path d="M53.13,168.89 L53.13,239.4213 A0,0 0 0 0 53.13,239.4213 L223.1666,239.4213 A0,0 0 0 0 223.1666,239.4213 L223.1666,178.89 L213.1666,168.89 L142.15,168.89 L138.15,134.47 L134.15,168.89 L53.13,168.89 A0,0 0 0 0 53.13,168.89" fill="#FEFFDD" style="stroke:#181818;stroke-width:0.5;"/><path d="M213.1666,168.89 L213.1666,178.89 L223.1666,178.89 L213.1666,168.89" fill="#FEFFDD" style="stroke:#181818;stroke-width:0.5;"/><text fill="#000000" font-family="sans-serif" font-size="13" font-weight="bold" lengthAdjust="spacing" textLength="88.1626" x="59.13" y="185.9569">Funktionen:</text><text fill="#000000" font-family="sans-serif" font-size="13" lengthAdjust="spacing" textLength="100.7817" x="59.13" y="201.0897">- Bildskalierung</text><text fill="#000000" font-family="sans-serif" font-size="13" lengthAdjust="spacing" textLength="109.2622" x="59.13" y="216.2225">- Dateisystem-IO</text><text fill="#000000" font-family="sans-serif" font-size="13" lengthAdjust="spacing" textLength="149.0366" x="59.13" y="231.3553">- Löschung von Bildern</text></g><!--link Controller to UoWInterface--><g class="link" data-entity-1="Controller" data-entity-2="UoWInterface" data-source-line="27" data-uid="lnk15" id="link_Controller_UoWInterface"><path d="M139.27,441.21 C144.39,443.76 309.2,525.75 446.3,580.15 C494.68,599.35 548.6577,616.4578 569.7477,622.9778" fill="none" id="Controller-to-UoWInterface" style="stroke:#181818;stroke-width:1;"/><polygon fill="#181818" points="575.48,624.75,568.063,618.2702,570.7031,623.2732,565.7001,625.9133,575.48,624.75" style="stroke:#181818;stroke-width:1;"/></g><!--link Controller to MapperInterface--><g class="link" data-entity-1="Controller" data-entity-2="MapperInterface" data-source-line="28" data-uid="lnk16" id="link_Controller_MapperInterface"><path d="M139.23,441.17 C145.52,442.48 510.1572,518.841 569.4572,531.251" fill="none" id="Controller-to-MapperInterface" style="stroke:#181818;stroke-width:1;"/><polygon fill="#181818" points="575.33,532.48,567.3402,526.7213,570.436,531.4558,565.7015,534.5516,575.33,532.48" style="stroke:#181818;stroke-width:1;"/></g><!--link Controller to ImageServiceInterface--><g class="link" data-entity-1="Controller" data-entity-2="ImageServiceInterface" data-source-line="29" data-uid="lnk17" id="link_Controller_ImageServiceInterface"><path d="M139.23,441.15 C145.52,441.15 510.03,441.15 569.33,441.15" fill="none" id="Controller-to-ImageServiceInterface" style="stroke:#181818;stroke-width:1;"/><polygon fill="#181818" points="575.33,441.15,566.33,437.15,570.33,441.15,566.33,445.15,575.33,441.15" style="stroke:#181818;stroke-width:1;"/></g><!--link Controller to Auth--><g class="link" data-entity-1="Controller" data-entity-2="Auth" data-source-line="30" data-uid="lnk18" id="link_Controller_Auth"><path d="M260.9317,369.0736 C261.3834,368.7901 261.8344,368.5068 262.2847,368.2236 C263.1852,367.6573 264.0827,367.0916 264.9769,366.5269 C266.7654,365.3973 268.5406,364.2713 270.3,363.15 C350.13,312.26 358.09,277.54 446.3,243.15 C453.355,240.4 460.7481,238.0239 468.2893,235.9713 C472.0599,234.9451 475.8676,233.9997 479.6885,233.1289 C480.1661,233.02 474.7876,234.2176 475.2656,234.1111" fill="none" id="Controller-to-Auth" style="stroke:#181818;stroke-width:1;"/><polygon fill="#181818" points="481.1219,232.8058,471.4672,230.8595,476.2416,233.8935,473.2076,238.6679,481.1219,232.8058" style="stroke:#181818;stroke-width:1;"/><text fill="#000000" font-family="sans-serif" font-size="13" lengthAdjust="spacing" textLength="97.8364" x="317.8" y="246.2169">Verifies scopes</text></g><!--reverse link UnitOfWork to UoWInterface--><g class="link" data-entity-1="UnitOfWork" data-entity-2="UoWInterface" data-source-line="32" data-uid="lnk20" id="link_UnitOfWork_UoWInterface"><path d="M405.7927,711.8766 C412.0641,708.8831 406.7652,711.4124 412.9442,708.463 C437.6598,696.6657 461.4704,685.3002 483.0567,674.9964 C526.2294,654.3888 560.505,638.0275 575.33,630.95" fill="none" id="UnitOfWork-backto-UoWInterface" style="stroke:#181818;stroke-width:1;"/><polygon fill="none" points="389.5483,719.6304,408.3773,717.2914,403.2081,706.4618,389.5483,719.6304" style="stroke:#181818;stroke-width:1;"/></g><!--link UnitOfWork to AnnouncementRepo--><g class="link" data-entity-1="UnitOfWork" data-entity-2="AnnouncementRepo" data-source-line="33" data-uid="lnk21" id="link_UnitOfWork_AnnouncementRepo"><path d="M139.23,839.16 C145.52,839.81 510.062,877.5611 569.362,883.7111" fill="none" id="UnitOfWork-to-AnnouncementRepo" style="stroke:#181818;stroke-width:1;"/><polygon fill="#181818" points="575.33,884.33,566.7906,879.4229,570.3567,883.8142,565.9654,887.3803,575.33,884.33" style="stroke:#181818;stroke-width:1;"/></g><!--link UnitOfWork to ImageRepo--><g class="link" data-entity-1="UnitOfWork" data-entity-2="ImageRepo" data-source-line="34" data-uid="lnk22" id="link_UnitOfWork_ImageRepo"><path d="M139.23,839.14 C145.52,838.48 510.0634,799.9019 569.3634,793.6219" fill="none" id="UnitOfWork-to-ImageRepo" style="stroke:#181818;stroke-width:1;"/><polygon fill="#181818" points="575.33,792.99,565.9588,789.9601,570.3578,793.5166,566.8013,797.9156,575.33,792.99" style="stroke:#181818;stroke-width:1;"/></g><!--link AnnouncementRepo to Database--><g class="link" data-entity-1="AnnouncementRepo" data-entity-2="Database" data-source-line="36" data-uid="lnk23" id="link_AnnouncementRepo_Database"><path d="M593.14,883.72 C621.74,878.52 716.087,861.3645 779.157,849.8845" fill="none" id="AnnouncementRepo-to-Database" style="stroke:#181818;stroke-width:1;"/><polygon fill="#181818" points="785.06,848.81,775.4892,846.4864,780.1408,849.7054,776.9218,854.357,785.06,848.81" style="stroke:#181818;stroke-width:1;"/></g><!--link ImageRepo to Database--><g class="link" data-entity-1="ImageRepo" data-entity-2="Database" data-source-line="37" data-uid="lnk24" id="link_ImageRepo_Database"><path d="M593.14,793.61 C621.74,798.92 716.091,816.4638 779.161,828.1838" fill="none" id="ImageRepo-to-Database" style="stroke:#181818;stroke-width:1;"/><polygon fill="#181818" points="785.06,829.28,776.9423,823.703,780.1442,828.3665,775.4807,831.5684,785.06,829.28" style="stroke:#181818;stroke-width:1;"/></g><!--reverse link ImageService to ImageServiceInterface--><g class="link" data-entity-1="ImageService" data-entity-2="ImageServiceInterface" data-source-line="39" data-uid="lnk26" id="link_ImageService_ImageServiceInterface"><path d="M228.8657,135.4054 C248.2257,141.3154 251.71,143.15 270.3,151.15 C346.36,183.87 384.46,175.57 432.3,243.15 C452.65,271.9 428.97,290.49 446.3,321.15 C479.29,379.5 551.59,423.5 575.47,436.91" fill="none" id="ImageService-backto-ImageServiceInterface" style="stroke:#181818;stroke-width:1;"/><polygon fill="none" points="211.65,130.15,227.1139,141.144,230.6175,129.6668,211.65,130.15" style="stroke:#181818;stroke-width:1;"/></g><!--link ImageService to FileSystem--><g class="link" data-entity-1="ImageService" data-entity-2="FileSystem" data-source-line="40" data-uid="lnk27" id="link_ImageService_FileSystem"><path d="M211.5,111.15 C299.74,111.15 441.03,111.15 521.18,111.15" fill="none" id="ImageService-to-FileSystem" style="stroke:#181818;stroke-width:1;"/><polygon fill="#181818" points="527.18,111.15,518.18,107.15,522.18,111.15,518.18,115.15,527.18,111.15" style="stroke:#181818;stroke-width:1;"/><text fill="#000000" font-family="sans-serif" font-size="13" lengthAdjust="spacing" textLength="130.7935" x="301.3" y="107.2169">Saves/reads images</text></g><!--link GMN28 to Controller--><g class="link" data-entity-1="GMN28" data-entity-2="Controller" data-source-line="44" data-uid="lnk30" id="link_GMN28_Controller"><path d="M138.15,345.76 C138.15,349.7025 138.15,353.645 138.15,357.5875 C138.15,359.5588 138.15,361.53 138.15,363.5013 C138.15,364.4869 138.15,365.4725 138.15,366.4581 C138.15,366.9509 138.15,367.4438 138.15,367.9366 C138.15,368.183 138.15,368.4294 138.15,368.6758 C138.15,368.799 138.15,368.9222 138.15,369.0454" fill="none" id="GMN28-Controller" style="stroke:#181818;stroke-width:1;stroke-dasharray:7.0,7.0;"/></g><!--link UnitOfWork to GMN31--><g class="link" data-entity-1="UnitOfWork" data-entity-2="GMN31" data-source-line="51" data-uid="lnk33" id="link_UnitOfWork_GMN31"><path d="M431.0302,938.3836 C432.2163,938.7869 433.3994,939.1891 434.5794,939.5903 C439.2994,941.1952 443.9697,942.783 448.5801,944.3506 C467.0219,950.6209 484.5075,956.5663 500.4,961.97" fill="none" id="UnitOfWork-GMN31" style="stroke:#181818;stroke-width:1;stroke-dasharray:7.0,7.0;"/></g><!--SRC=[VLJDRjim3BxhAOXSjcKm1kpOGu7-f5YmTiNY9ZqCFIWs4nEs9KEIkxNRtcRFiDDkVR7HiclBJZUVBF8Z-P7y99kJggIH9IIwhBH2vMBtK23KPV5U5BXpu3GOscSEKZAOED9AY5SGDHzya7NbykT8LArPzBbWzkL4ALsh14i-dcdbZ2uAD7Spa1Q6CtmNm1zn4hEJ2S9ikLRahdUtskGUkzQtosVl0VPALXKQZsj__mqjvHvZDFUKeCU7XY7gfnWrCN1fYG_d5uY77Q-mqfQSDWy-RkhwRwndDadGswOCmy2kcxk3afrZ51ZsVtSm4P5A9xVIChVuyoN4YzLciVAeyyunY67nZVjG22VRxEcNsjC-HmeqKUWwXTaL9KPRpRfQfao0N3UOscNTA0DoSQ8hX8qiY6cmy3pK6yyoJ7AUGPVrWbYoCK-9cNjGOuWVhCDou7UAZuHPhVOzfq1_KNGybjZ4DvNLnFsoYYOWt-GHRD3GZj22RJgnGeHr8QghwCTne30HYCrdcMfeuXya8gPGx-yNrmF7Pl5YBy-yHk883px9C7RkCvRtQDyPbAa5Qf1ssCKdxUYntuFI3lcTgK3lWZV1gs4-vt59vRvgumfAibPJH_EvzqPmjbgVm-xfZndDnNRUKohIQ5qLkk7m-YQhowsILC1RkEOtZPGitdH8hwg81q1ec0olIXjg3gmNWIg5XgDecRRF8NCDbjHo_IWhYuKRw8Maeluky_8x__bfTCFjMPat-aOrBRNLpkcogJKQV5ljebPTs52mwTZcV6DQvbqLwP2itqkqlEwCbq-_RT9S1xZNoiVnxUth_mK0]--></g></svg>