<svg xmlns="http://www.w3.org/2000/svg" xmlns:xlink="http://www.w3.org/1999/xlink" contentStyleType="text/css" data-diagram-type="DESCRIPTION" height="440px" preserveAspectRatio="none" style="width:429px;height:440px;background:#FFFFFF;" version="1.1" viewBox="0 0 429 440" width="429px" zoomAndPan="magnify"><defs/><g><!--cluster Ank?ndigungen--><g class="cluster" data-entity="Ankündigungen" data-source-line="6" data-uid="ent0004" id="cluster_Ankündigungen"><rect fill="none" height="427" rx="2.5" ry="2.5" style="stroke:#181818;stroke-width:1;" width="310.53" x="113.17" y="7"/><text fill="#000000" font-family="sans-serif" font-size="14" font-weight="bold" lengthAdjust="spacing" textLength="124.3047" x="206.2827" y="21.9951">Ankündigungen</text></g><!--entity UC1--><g class="entity" data-entity="UC1" data-source-line="7" data-uid="ent0005" id="entity_UC1"><ellipse cx="268.4365" cy="72.0033" fill="#F1F1F1" rx="139.2665" ry="30.2533" style="stroke:#181818;stroke-width:0.5;"/><text fill="#000000" font-family="sans-serif" font-size="14" lengthAdjust="spacing" textLength="260.0664" x="138.4033" y="76.6517">Veröffentlichte Ankündigungen lesen</text></g><!--entity UC2--><g class="entity" data-entity="UC2" data-source-line="9" data-uid="ent0006" id="entity_UC2"><ellipse cx="268.4376" cy="395.9955" fill="#F1F1F1" rx="99.7776" ry="22.3555" style="stroke:#181818;stroke-width:0.5;"/><text fill="#000000" font-family="sans-serif" font-size="14" lengthAdjust="spacing" textLength="175.5674" x="180.6539" y="400.644">Ankündigungen erstellen</text></g><!--entity UC3--><g class="entity" data-entity="UC3" data-source-line="10" data-uid="ent0007" id="entity_UC3"><ellipse cx="268.4422" cy="318.0004" fill="#F1F1F1" rx="89.1522" ry="20.2304" style="stroke:#181818;stroke-width:0.5;"/><text fill="#000000" font-family="sans-serif" font-size="14" lengthAdjust="spacing" textLength="151.8193" x="192.5325" y="322.6489">Ankündigungen lesen</text></g><!--entity UC4--><g class="entity" data-entity="UC4" data-source-line="11" data-uid="ent0008" id="entity_UC4"><ellipse cx="268.4364" cy="239.0013" fill="#F1F1F1" rx="106.7064" ry="23.7413" style="stroke:#181818;stroke-width:0.5;"/><text fill="#000000" font-family="sans-serif" font-size="14" lengthAdjust="spacing" textLength="190.7363" x="173.0682" y="243.6497">Ankündigungen bearbeiten</text></g><!--entity UC5--><g class="entity" data-entity="UC5" data-source-line="12" data-uid="ent0009" id="entity_UC5"><ellipse cx="268.4429" cy="159.0026" fill="#F1F1F1" rx="96.5129" ry="21.7026" style="stroke:#181818;stroke-width:0.5;"/><text fill="#000000" font-family="sans-serif" font-size="14" lengthAdjust="spacing" textLength="168.3418" x="184.272" y="163.651">Ankündigungen löschen</text></g><!--entity user--><g class="entity" data-entity="user" data-source-line="3" data-uid="ent0002" id="entity_user"><ellipse cx="37.5854" cy="42.35" fill="#F1F1F1" rx="8" ry="8" style="stroke:#181818;stroke-width:0.5;"/><path d="M37.5854,50.35 L37.5854,77.35 M24.5854,58.35 L50.5854,58.35 M37.5854,77.35 L24.5854,92.35 M37.5854,77.35 L50.5854,92.35" fill="none" style="stroke:#181818;stroke-width:0.5;"/><text fill="#000000" font-family="sans-serif" font-size="14" lengthAdjust="spacing" textLength="63.1709" x="6" y="106.8451">Benutzer</text></g><!--entity admin--><g class="entity" data-entity="admin" data-source-line="4" data-uid="ent0003" id="entity_admin"><ellipse cx="37.5831" cy="248.35" fill="#F1F1F1" rx="8" ry="8" style="stroke:#181818;stroke-width:0.5;"/><path d="M37.5831,256.35 L37.5831,283.35 M24.5831,264.35 L50.5831,264.35 M37.5831,283.35 L24.5831,298.35 M37.5831,283.35 L50.5831,298.35" fill="none" style="stroke:#181818;stroke-width:0.5;"/><text fill="#000000" font-family="sans-serif" font-size="14" lengthAdjust="spacing" textLength="61.3662" x="6.9" y="312.8451">Manager</text></g><!--link user to UC1--><g class="link" data-entity-1="user" data-entity-2="UC1" data-source-line="15" data-uid="lnk10" id="link_user_UC1"><path d="M69.45,72 C85.55,72 100.51,72 122.76,72" fill="none" id="user-to-UC1" style="stroke:#181818;stroke-width:1;"/><polygon fill="#181818" points="128.76,72,119.76,68,123.76,72,119.76,76,128.76,72" style="stroke:#181818;stroke-width:1;"/></g><!--link admin to UC2--><g class="link" data-entity-1="admin" data-entity-2="UC2" data-source-line="16" data-uid="lnk11" id="link_admin_UC2"><path d="M63.52,316.34 C74.67,330.73 88.96,345.99 105.17,356 C127.89,370.02 149.3829,377.7842 175.1029,383.7042" fill="none" id="admin-to-UC2" style="stroke:#181818;stroke-width:1;"/><polygon fill="#181818" points="180.95,385.05,173.0766,379.1332,176.0774,383.9285,171.2821,386.9293,180.95,385.05" style="stroke:#181818;stroke-width:1;"/></g><!--link admin to UC3--><g class="link" data-entity-1="admin" data-entity-2="UC3" data-source-line="17" data-uid="lnk12" id="link_admin_UC3"><path d="M68.5,283.23 C100.85,288.88 147.6495,297.0673 190.6895,304.5873" fill="none" id="admin-to-UC3" style="stroke:#181818;stroke-width:1;"/><polygon fill="#181818" points="196.6,305.62,188.4228,300.1307,191.6746,304.7594,187.0459,308.0113,196.6,305.62" style="stroke:#181818;stroke-width:1;"/></g><!--link admin to UC4--><g class="link" data-entity-1="admin" data-entity-2="UC4" data-source-line="18" data-uid="lnk13" id="link_admin_UC4"><path d="M68.5,272.9 C97.4,267.98 136.6252,261.2875 176.6052,254.4775" fill="none" id="admin-to-UC4" style="stroke:#181818;stroke-width:1;"/><polygon fill="#181818" points="182.52,253.47,172.9761,251.038,177.591,254.3096,174.3195,258.9245,182.52,253.47" style="stroke:#181818;stroke-width:1;"/></g><!--link admin to UC5--><g class="link" data-entity-1="admin" data-entity-2="UC5" data-source-line="19" data-uid="lnk14" id="link_admin_UC5"><path d="M62.69,239.45 C73.89,224.45 88.44,208.4 105.17,198 C128.18,183.7 150.1601,175.9292 176.2501,170.1892" fill="none" id="admin-to-UC5" style="stroke:#181818;stroke-width:1;"/><polygon fill="#181818" points="182.11,168.9,172.4607,166.9272,177.2268,169.9743,174.1797,174.7404,182.11,168.9" style="stroke:#181818;stroke-width:1;"/></g><!--SRC=[VP2n3e8m48RtFiM5dK64rKIT7NKlvIYDzKZQOz7uMankl9ZG8B6QSDj__Ru_wLci6RW5PtJ3K1c7YarBGaZ5hOFaWDJn7Lq2qaFdqNqUJfAadlUokfbHcLn9sYBiwJgyg3Aw8uq43m7ZZBQI7Y6ve1lwkaPYQrJ3VxX5ZnIApyTDK6F_1qVd6QrTb6oL_YxVhf8bIbUYuGNFruk7tgjcWGln568w6AJfBdmaN6bEMPIsKSgZLBm1]--></g></svg>