<svg xmlns="http://www.w3.org/2000/svg" xmlns:xlink="http://www.w3.org/1999/xlink" contentStyleType="text/css" data-diagram-type="DESCRIPTION" height="434px" preserveAspectRatio="none" style="width:432px;height:434px;background:#FFFFFF;" version="1.1" viewBox="0 0 432 434" width="432px" zoomAndPan="magnify"><defs/><g><!--cluster Ank?ndigungs-System--><g class="cluster" data-entity="Ankündigungs-System" data-source-line="7" data-uid="ent0004" id="cluster_Ankündigungs-System"><path d="M117.02,6 L295.3237,6 A3.75,3.75 0 0 1 297.8237,8.5 L304.8237,28.2969 L422.55,28.2969 A2.5,2.5 0 0 1 425.05,30.7969 L425.05,424.5 A2.5,2.5 0 0 1 422.55,427 L117.02,427 A2.5,2.5 0 0 1 114.52,424.5 L114.52,8.5 A2.5,2.5 0 0 1 117.02,6" fill="none" style="stroke:#000000;stroke-width:1.5;"/><line style="stroke:#000000;stroke-width:1.5;" x1="114.52" x2="304.8237" y1="28.2969" y2="28.2969"/><text fill="#000000" font-family="sans-serif" font-size="14" font-weight="bold" lengthAdjust="spacing" textLength="177.3037" x="118.52" y="20.9951">Ankündigungs-System</text></g><!--entity UC1--><g class="entity" data-entity="UC1" data-source-line="8" data-uid="ent0005" id="entity_UC1"><ellipse cx="269.7832" cy="390.0046" fill="#F1F1F1" rx="91.9232" ry="20.7846" style="stroke:#181818;stroke-width:0.5;"/><text fill="#000000" font-family="sans-serif" font-size="14" lengthAdjust="spacing" textLength="158.0811" x="190.7426" y="394.6531">Ankündigung erstellen</text></g><!--entity UC2--><g class="entity" data-entity="UC2" data-source-line="9" data-uid="ent0006" id="entity_UC2"><ellipse cx="269.7778" cy="311.9956" fill="#F1F1F1" rx="98.7278" ry="22.1456" style="stroke:#181818;stroke-width:0.5;"/><text fill="#000000" font-family="sans-serif" font-size="14" lengthAdjust="spacing" textLength="173.25" x="183.1528" y="316.644">Ankündigung bearbeiten</text></g><!--entity UC3--><g class="entity" data-entity="UC3" data-source-line="10" data-uid="ent0007" id="entity_UC3"><ellipse cx="269.7829" cy="233.0026" fill="#F1F1F1" rx="96.5129" ry="21.7026" style="stroke:#181818;stroke-width:0.5;"/><text fill="#000000" font-family="sans-serif" font-size="14" lengthAdjust="spacing" textLength="168.3418" x="185.612" y="237.651">Ankündigungen löschen</text></g><!--entity UC4--><g class="entity" data-entity="UC4" data-source-line="11" data-uid="ent0008" id="entity_UC4"><ellipse cx="269.7822" cy="156.0004" fill="#F1F1F1" rx="89.1522" ry="20.2304" style="stroke:#181818;stroke-width:0.5;"/><text fill="#000000" font-family="sans-serif" font-size="14" lengthAdjust="spacing" textLength="151.8193" x="193.8725" y="160.6489">Ankündigungen lesen</text></g><!--entity UC5--><g class="entity" data-entity="UC5" data-source-line="12" data-uid="ent0009" id="entity_UC5"><ellipse cx="269.7765" cy="71.0033" fill="#F1F1F1" rx="139.2665" ry="30.2533" style="stroke:#181818;stroke-width:0.5;"/><text fill="#000000" font-family="sans-serif" font-size="14" lengthAdjust="spacing" textLength="260.0664" x="139.7433" y="75.6517">Veröffentlichte Ankündigungen lesen</text></g><!--entity User--><g class="entity" data-entity="User" data-source-line="4" data-uid="ent0002" id="entity_User"><ellipse cx="38.2551" cy="41.35" fill="#F1F1F1" rx="8" ry="8" style="stroke:#181818;stroke-width:0.5;"/><path d="M38.2551,49.35 L38.2551,76.35 M25.2551,57.35 L51.2551,57.35 M38.2551,76.35 L25.2551,91.35 M38.2551,76.35 L51.2551,91.35" fill="none" style="stroke:#181818;stroke-width:0.5;"/><text fill="#000000" font-family="sans-serif" font-size="14" lengthAdjust="spacing" textLength="31.9102" x="22.3" y="105.8451">User</text></g><!--entity Publisher--><g class="entity" data-entity="Publisher" data-source-line="5" data-uid="ent0003" id="entity_Publisher"><ellipse cx="38.2588" cy="242.35" fill="#F1F1F1" rx="8" ry="8" style="stroke:#181818;stroke-width:0.5;"/><path d="M38.2588,250.35 L38.2588,277.35 M25.2588,258.35 L51.2588,258.35 M38.2588,277.35 L25.2588,292.35 M38.2588,277.35 L51.2588,292.35" fill="none" style="stroke:#181818;stroke-width:0.5;"/><text fill="#000000" font-family="sans-serif" font-size="14" lengthAdjust="spacing" textLength="64.5176" x="6" y="306.8451">Publisher</text></g><!--link Publisher to UC1--><g class="link" data-entity-1="Publisher" data-entity-2="UC1" data-source-line="15" data-uid="lnk10" id="link_Publisher_UC1"><path d="M63.65,310.6 C74.97,325.61 89.67,341.65 106.52,352 C130.31,366.61 153.3443,374.3949 180.1343,379.9349" fill="none" id="Publisher-to-UC1" style="stroke:#181818;stroke-width:1;"/><polygon fill="#181818" points="186.01,381.15,178.0065,375.4103,181.1136,380.1375,176.3864,383.2445,186.01,381.15" style="stroke:#181818;stroke-width:1;"/></g><!--link Publisher to UC2--><g class="link" data-entity-1="Publisher" data-entity-2="UC2" data-source-line="16" data-uid="lnk11" id="link_Publisher_UC2"><path d="M70.69,277.48 C101.51,282.85 143.8091,290.2198 184.9491,297.3898" fill="none" id="Publisher-to-UC2" style="stroke:#181818;stroke-width:1;"/><polygon fill="#181818" points="190.86,298.42,182.6804,292.9341,185.9342,297.5615,181.3069,300.8153,190.86,298.42" style="stroke:#181818;stroke-width:1;"/></g><!--link Publisher to UC3--><g class="link" data-entity-1="Publisher" data-entity-2="UC3" data-source-line="17" data-uid="lnk12" id="link_Publisher_UC3"><path d="M70.69,266.66 C101.75,261.38 144.5749,254.1056 185.9249,247.0756" fill="none" id="Publisher-to-UC3" style="stroke:#181818;stroke-width:1;"/><polygon fill="#181818" points="191.84,246.07,182.2969,243.635,186.9107,246.908,183.6377,251.5219,191.84,246.07" style="stroke:#181818;stroke-width:1;"/></g><!--link Publisher to UC4--><g class="link" data-entity-1="Publisher" data-entity-2="UC4" data-source-line="18" data-uid="lnk13" id="link_Publisher_UC4"><path d="M64.46,233.56 C75.72,219.17 90.15,203.91 106.52,194 C131.14,179.08 155.2568,171.1979 182.7268,165.6979" fill="none" id="Publisher-to-UC4" style="stroke:#181818;stroke-width:1;"/><polygon fill="#181818" points="188.61,164.52,178.9999,162.3647,183.7073,165.5016,180.5704,170.2091,188.61,164.52" style="stroke:#181818;stroke-width:1;"/></g><!--link User to UC5--><g class="link" data-entity-1="User" data-entity-2="UC5" data-source-line="19" data-uid="lnk14" id="link_User_UC5"><path d="M54.67,71 C71.31,71 93.56,71 124.18,71" fill="none" id="User-to-UC5" style="stroke:#181818;stroke-width:1;"/><polygon fill="#181818" points="130.18,71,121.18,67,125.18,71,121.18,75,130.18,71" style="stroke:#181818;stroke-width:1;"/></g><!--SRC=[VT0zYy9040RWVdx5c3w5NwrmU7u43XMDruRDPf8ixcraPrA8-BUihiiVqpiaYABTl2_F53ETZ7BZ2BycqpY9byawcitZv3DQJyPnj5o0fLnGAlIcA0KpuqcBgHo0qb9vt3BvsxYgKskul6ROAxrJ1M7muNRDhyjCKRk2mys1XNu2F09YpQGLFn0aVnNMaWjGCMx7tPSo9ULJCjBItYjA3crpPbssjF-E4hTkSE- -oJVdF2SdrkXI2Dyi3k44qFu3mt3qVyjZqtjg-a_D0FvUV0l32m00]--></g></svg>