<?xml version="1.0" encoding="UTF-8" standalone="no"?>
<!-- Created with Inkscape (http://www.inkscape.org/) -->

<svg
   width="105.83332mm"
   height="76.426208mm"
   viewBox="0 0 105.83332 76.426208"
   version="1.1"
   id="svg5"
   xml:space="preserve"
   xmlns="http://www.w3.org/2000/svg"
   xmlns:svg="http://www.w3.org/2000/svg"><defs
     id="defs2" /><g
     id="layer1"
     transform="translate(-32.973303,-51.725553)"><g
       id="g191"
       transform="matrix(0.26458333,0,0,0.26458333,32.885109,51.863568)"><path
         style="fill:#e97d1b;fill-opacity:1;fill-rule:nonzero;stroke:none"
         d="m 62,89 c 0,0 9.666667,-21.666667 38,-35.666667 15.33333,-7.666666 46,-16 75,-13 41,5.333334 79.33333,25 84.66667,67.999997 0,0 64.33333,-40.999997 6.66666,-87.33333 0,0 -43.66666,-39 -123.66666,-12 C 62.666667,35.666667 62,89 62,89 Z"
         id="path135" /><path
         style="fill:#616160;fill-opacity:1;fill-rule:nonzero;stroke:none"
         d="m 82.666667,148.33333 c 0,0 -51.333334,-59.666663 39.000003,-91.999997 5.66666,-2 18.66666,-4.333333 18.66666,-4.333333 0,0 22,-3.666667 41.33334,1 0,0 -58.66667,27.333333 -39.33334,79 C 162,183.66667 222,186 244.66667,187.66667 c 0,0 -99.33334,28.33333 -162.000003,-39.33334 z"
         id="path137" /><path
         style="fill:#616160;fill-opacity:1;fill-rule:nonzero;stroke:none"
         d="m 275.33333,111 c 0,0 -43.66666,44.33333 -121,17.33333 0,0 25.33334,69.33334 127.33334,41 0,0 62,-20 54.33333,-82.999997 0,0 -0.66667,-39.666666 -52.66667,-67 0,0 41,46.333334 -8,91.666667 z"
         id="path139" /><path
         style="fill:#616160;fill-opacity:1;fill-rule:nonzero;stroke:none"
         d="m 35,287 c 0,-31 0,-31 0,-31 0,-4 -0.333333,-5 -1,-7 -1.333333,-4 -5.666667,-6.66667 -11,-6.66667 -3,0 -6.333333,1 -9.333333,3 C 12,246.66667 11,247.33333 9,249 c 0,-2.33333 0.3333333,-4.33333 0.3333333,-6 0,-9.66667 0,-9.66667 0,-9.66667 0,-4.33333 -0.3333333,-7.33333 -1,-10 C 0.33333333,225 0.33333333,225 0.33333333,225 0.66666667,227.33333 1,230.33333 1,234 c 0,53 0,53 0,53 8.3333333,0 8.3333333,0 8.3333333,0 0,-31.33333 0,-31.33333 0,-31.33333 3.3333337,-4 7.6666667,-6.33334 11.3333337,-6.33334 2.333333,0 4,0.66667 5,1.66667 C 26.333333,252 27,254 27,257 c 0,30 0,30 0,30 z"
         id="path141" /><path
         style="fill:#616160;fill-opacity:1;fill-rule:evenodd;stroke:none"
         d="m 64,248.33333 c -6.666667,0 -9.666667,5 -9.666667,16 0,13.33334 3.333334,17.66667 10,17.66667 6.333334,0 10,-4.66667 10,-16 0,-13.66667 -4,-17.66667 -10.333333,-17.66667 m 0,-6 c 13,0 19.333333,10 19.333333,23.33334 0,13.66666 -7.333333,22.66666 -19,22.66666 -11.666666,0 -19,-9 -19,-23 0,-14.33333 7.333334,-23 18.666667,-23 z"
         id="path143" /><path
         style="fill:#616160;fill-opacity:1;fill-rule:nonzero;stroke:none"
         d="m 104,287 c -1.33333,-5 -1.33333,-5 -1.33333,-5 -1,0.33333 -2.33334,0 -3.000003,-0.66667 -0.666667,-0.66666 -1,-2 -1,-6.33333 0,-39.33333 0,-39.33333 0,-39.33333 0,-5.33334 0,-9.33334 -0.666667,-12.33334 C 89.666667,225 89.666667,225 89.666667,225 c 0.666666,3.33333 1,6.33333 1,12.66667 0,39.33333 0,39.33333 0,39.33333 0,4.33333 0.333333,5.66667 1.666666,7.66667 1.333334,2.33333 3.333334,3 6.666667,3 2,0 3.33333,0 5,-0.66667 z"
         id="path145" /><path
         style="fill:#616160;fill-opacity:1;fill-rule:nonzero;stroke:none"
         d="m 123.33333,230 c 0,-3.33333 -2.66666,-5.66667 -5.66666,-5.66667 C 114.33333,224.33333 112,227 112,230 c 0,3.33333 2.33333,5.66667 5.33333,5.66667 3.33334,0 6,-2.33334 6,-5.66667 z"
         id="path147" /><path
         style="fill:#616160;fill-opacity:1;fill-rule:nonzero;stroke:none"
         d="m 121.66667,287 v -44.66667 l -8.33334,1.33334 V 287 Z"
         id="path149" /><path
         style="fill:#616160;fill-opacity:1;fill-rule:nonzero;stroke:none"
         d="m 164.66667,273.66667 c 0,-5.66667 -3.33334,-10.33334 -11.33334,-12.33334 C 147.66667,260 147.66667,260 147.66667,260 c -4.66667,-1 -6,-2.66667 -6,-5.66667 0,-4 3,-6.66666 7.33333,-6.66666 3.66667,0 6.66667,1.33333 10.66667,3.33333 2.66666,-5.66667 2.66666,-5.66667 2.66666,-5.66667 C 159,243 154,241.66667 148.66667,241.66667 c -9.33334,0 -15.66667,5.66666 -15.66667,13.66666 0,6.33334 3.66667,10.66667 10.66667,12 5.33333,1 5.33333,1 5.33333,1 5,1 7.33333,3 7.33333,6.66667 0,4.33333 -3.33333,7.33333 -8.33333,7.33333 -4.66667,0 -9.66667,-2 -13.66667,-4.33333 -3,5.66667 -3,5.66667 -3,5.66667 5,3 11,4.66666 16.33334,4.66666 10,0 17,-6 17,-14.66666 z"
         id="path151" /><path
         style="fill:#616160;fill-opacity:1;fill-rule:nonzero;stroke:none"
         d="m 194.33333,243.33333 c -10.66666,0 -10.66666,0 -10.66666,0 0,-4.33333 0.33333,-9.66666 0.66666,-13 -8.33333,2 -8.33333,2 -8.33333,2 -0.33333,3.33334 -0.33333,7.66667 -0.33333,11 -5.33334,0 -5.33334,0 -5.33334,0 0,5.66667 0,5.66667 0,5.66667 5.33334,0 5.33334,0 5.33334,0 0,28 0,28 0,28 0,6.33333 1.33333,7.33333 3,9 1.66666,1.33333 4.66666,2.33333 7.66666,2.33333 2.66667,0 5.33334,-0.66666 7.66667,-2 -1,-5 -1,-5 -1,-5 -1.33333,0.66667 -2.33333,1 -4,1 -4.33333,0 -5.66667,-1.66666 -5.66667,-7 0,-26.33333 0,-26.33333 0,-26.33333 C 192,249 192,249 192,249 Z"
         id="path153" /><path
         style="fill:#616160;fill-opacity:1;fill-rule:nonzero;stroke:none"
         d="m 213.33333,230 c 0,-3.33333 -2.66666,-5.66667 -5.66666,-5.66667 -3,0 -5.66667,2.66667 -5.66667,5.66667 0,3.33333 2.33333,5.66667 5.66667,5.66667 3,0 5.66666,-2.33334 5.66666,-5.66667 z"
         id="path155" /><path
         style="fill:#616160;fill-opacity:1;fill-rule:nonzero;stroke:none"
         d="m 211.66667,287 v -44.66667 l -8.33334,1.33334 V 287 Z"
         id="path157" /><path
         style="fill:#616160;fill-opacity:1;fill-rule:nonzero;stroke:none"
         d="m 254.33333,282.33333 c -4,-5 -4,-5 -4,-5 -2.33333,3 -5.66666,4.33334 -9,4.33334 -2.33333,0 -4.66666,-1 -6.33333,-2.66667 -2,-2.33333 -3.33333,-6.33333 -3.33333,-12.33333 0,-6 0.66666,-10.33334 2,-13.33334 1.66666,-3 4.33333,-4.66666 7.66666,-4.66666 3,0 5,1 7.66667,3.33333 4.33333,-5.33333 4.33333,-5.33333 4.33333,-5.33333 C 250,243.66667 246,242 241.33333,242 c -4.33333,0 -8,1.66667 -11.33333,4.33333 -4,3.66667 -7.33333,9.33334 -7.33333,19.33334 0,6.66666 1.33333,11.66666 4.33333,15.66666 3,4.33334 7.66667,6.33334 14,6.33334 5.66667,0 9.33333,-1.33334 13.33333,-5.33334 z"
         id="path159" /><path
         style="fill:#616160;fill-opacity:1;fill-rule:nonzero;stroke:none"
         d="m 261.66667,259.66667 h 17.66666 v 7.66666 h -17.66666 z"
         id="path161" /><path
         style="fill:#616160;fill-opacity:1;fill-rule:nonzero;stroke:none"
         d="m 323.33333,287 c 0,-33 0,-33 0,-33 0,-2 -0.33333,-4 -1,-5.33333 C 321,245 316.66667,242.33333 312,242.33333 c -2.66667,0 -5.33333,0.66667 -8,2.33334 -1.66667,1 -3,2 -5.66667,4.33333 0,-3 -0.33333,-4.66667 -1.33333,-7 -7.66667,2.33333 -7.66667,2.33333 -7.66667,2.33333 1.33334,3 1.66667,5 1.66667,10.33334 C 291,287 291,287 291,287 c 8,0 8,0 8,0 0,-32.33333 0,-32.33333 0,-32.33333 3,-3 7.66667,-5.33334 10.66667,-5.33334 2,0 3.66666,0.33334 4.33333,1.66667 1.33333,1.33333 1.66667,2.66667 1.66667,6.66667 0,29.33333 0,29.33333 0,29.33333 z"
         id="path163" /><path
         style="fill:#616160;fill-opacity:1;fill-rule:evenodd;stroke:none"
         d="M 358.66667,251.33333 C 357.33333,249.33333 355,248 352.33333,248 c -6,0 -9,5 -9,13 18,0 18,0 18,0 0,-4.33333 -1,-7.66667 -2.66666,-9.66667 m 11,15.66667 C 343,267 343,267 343,267 c 0,1 0,1 0,1 0,3.66667 0.66667,6.66667 2,8.66667 2.33333,3.33333 5.66667,5 10,5 4,0 7.66667,-1.33334 10.66667,-4 3,4.66666 3,4.66666 3,4.66666 -4.33334,3.66667 -9.33334,5.66667 -15,5.66667 -12,0 -19.33334,-9 -19.33334,-23 0,-7.66667 1.33334,-12.66667 5,-17 3.66667,-4 7.66667,-6 13.33334,-6 4.66666,0 8.66666,1.66667 11.66666,4.66667 4,4 5.33334,9 5.33334,19 z"
         id="path165" /><path
         style="fill:#616160;fill-opacity:1;fill-rule:nonzero;stroke:none"
         d="m 400.33333,243.33333 c -10.66666,0 -10.66666,0 -10.66666,0 0,-4.33333 0.33333,-9.66666 0.66666,-13 -8.33333,2 -8.33333,2 -8.33333,2 -0.33333,3.33334 -0.33333,7.66667 -0.33333,11 -5.33334,0 -5.33334,0 -5.33334,0 0,5.66667 0,5.66667 0,5.66667 5.33334,0 5.33334,0 5.33334,0 0,28 0,28 0,28 0,6.33333 1.33333,7.33333 3.33333,9 1.33333,1.33333 4.33333,2.33333 7.33333,2.33333 2.66667,0 5.33334,-0.66666 7.66667,-2 -0.66667,-5 -0.66667,-5 -0.66667,-5 -1.66666,0.66667 -2.66666,1 -4.33333,1 -4.33333,0 -5.66667,-1.66666 -5.66667,-7 0,-26.33333 0,-26.33333 0,-26.33333 C 398,249 398,249 398,249 Z"
         id="path167" /></g></g></svg>
